<svg width="79" height="13" viewBox="0 0 79 13" fill="none" xmlns="http://www.w3.org/2000/svg">
<path d="M0.56 8.592H2.032C2.064 9.008 2.20267 9.38667 2.448 9.728C2.704 10.0587 3.04533 10.32 3.472 10.512C3.90933 10.704 4.416 10.8 4.992 10.8C5.49333 10.8 5.90933 10.7307 6.24 10.592C6.57067 10.4533 6.816 10.2667 6.976 10.032C7.14667 9.78667 7.232 9.49867 7.232 9.168C7.232 8.83733 7.14133 8.576 6.96 8.384C6.77867 8.18133 6.50667 8.016 6.144 7.888C5.78133 7.74933 5.33333 7.616 4.8 7.488C4.33067 7.37067 3.86667 7.232 3.408 7.072C2.96 6.90133 2.544 6.69333 2.16 6.448C1.78667 6.20267 1.48267 5.90933 1.248 5.568C1.024 5.216 0.912 4.79467 0.912 4.304C0.912 3.78133 1.056 3.30667 1.344 2.88C1.632 2.44267 2.05333 2.096 2.608 1.84C3.17333 1.57333 3.856 1.44 4.656 1.44C5.89333 1.44 6.82667 1.74933 7.456 2.368C8.096 2.98667 8.40533 3.81333 8.384 4.848H6.944C6.912 4.12267 6.68267 3.60533 6.256 3.296C5.82933 2.976 5.27467 2.816 4.592 2.816C4.00533 2.816 3.504 2.93867 3.088 3.184C2.672 3.41867 2.464 3.792 2.464 4.304C2.464 4.528 2.512 4.72533 2.608 4.896C2.704 5.056 2.864 5.20533 3.088 5.344C3.312 5.48267 3.61067 5.616 3.984 5.744C4.368 5.872 4.84267 6.01067 5.408 6.16C5.83467 6.256 6.24533 6.37867 6.64 6.528C7.04533 6.67733 7.408 6.864 7.728 7.088C8.048 7.312 8.29867 7.6 8.48 7.952C8.672 8.304 8.768 8.736 8.768 9.248C8.768 9.792 8.63467 10.288 8.368 10.736C8.10133 11.1733 7.68533 11.5253 7.12 11.792C6.56533 12.048 5.84533 12.176 4.96 12.176C4.256 12.176 3.64267 12.0853 3.12 11.904C2.608 11.7227 2.176 11.488 1.824 11.2C1.48267 10.912 1.21067 10.6027 1.008 10.272C0.816 9.94133 0.682667 9.62667 0.608 9.328C0.544 9.02933 0.528 8.784 0.56 8.592ZM17.9503 12H16.4303V4.016H17.9503V12ZM16.5103 8.24L16.5263 8.72C16.5156 8.85867 16.4783 9.06667 16.4143 9.344C16.3609 9.61067 16.2649 9.904 16.1263 10.224C15.9983 10.544 15.8169 10.8533 15.5823 11.152C15.3583 11.4507 15.0703 11.696 14.7183 11.888C14.3663 12.08 13.9396 12.176 13.4383 12.176C13.0969 12.176 12.7449 12.128 12.3823 12.032C12.0303 11.936 11.7049 11.776 11.4062 11.552C11.1076 11.328 10.8676 11.024 10.6863 10.64C10.5049 10.2453 10.4143 9.75467 10.4143 9.168V4.016H11.9503V8.848C11.9503 9.33867 12.0249 9.72267 12.1743 10C12.3343 10.2773 12.5583 10.4747 12.8463 10.592C13.1343 10.7093 13.4596 10.768 13.8223 10.768C14.3769 10.768 14.8409 10.6347 15.2143 10.368C15.5983 10.0907 15.8969 9.76 16.1103 9.376C16.3236 8.98133 16.4569 8.60267 16.5103 8.24ZM24.7931 12.16C24.1638 12.16 23.6411 12.032 23.2251 11.776C22.8198 11.5093 22.4945 11.1627 22.2491 10.736C22.0145 10.3093 21.8438 9.856 21.7371 9.376C21.6305 8.896 21.5771 8.44267 21.5771 8.016C21.5771 7.44 21.6251 6.90133 21.7211 6.4C21.8278 5.89867 21.9985 5.456 22.2331 5.072C22.4678 4.688 22.7931 4.38933 23.2091 4.176C23.6251 3.96267 24.1531 3.856 24.7931 3.856C25.5078 3.856 26.1425 4.03733 26.6971 4.4C27.2625 4.752 27.7051 5.24267 28.0251 5.872C28.3451 6.49067 28.5051 7.20533 28.5051 8.016C28.5051 8.82667 28.3398 9.54667 28.0091 10.176C27.6785 10.7947 27.2305 11.28 26.6651 11.632C26.1105 11.984 25.4865 12.16 24.7931 12.16ZM24.3611 10.832C24.8731 10.832 25.3211 10.7147 25.7051 10.48C26.0998 10.2347 26.4038 9.904 26.6171 9.488C26.8411 9.06133 26.9531 8.57067 26.9531 8.016C26.9531 7.19467 26.7238 6.51733 26.2651 5.984C25.8171 5.45067 25.1825 5.184 24.3611 5.184C23.8065 5.184 23.3318 5.30133 22.9371 5.536C22.5531 5.77067 22.2598 6.10133 22.0571 6.528C21.8545 6.95467 21.7531 7.45067 21.7531 8.016C21.7531 8.53867 21.8491 9.01333 22.0411 9.44C22.2438 9.86667 22.5371 10.208 22.9211 10.464C23.3158 10.7093 23.7958 10.832 24.3611 10.832ZM21.7531 0.815999V10.256C21.7531 10.5013 21.7371 10.7947 21.7051 11.136C21.6838 11.4773 21.6625 11.7653 21.6411 12H20.2331V0.815999H21.7531ZM29.7341 9.408H31.1421C31.1955 9.83467 31.3875 10.1867 31.7181 10.464C32.0488 10.7307 32.5128 10.864 33.1101 10.864C33.4941 10.864 33.7928 10.8213 34.0061 10.736C34.2195 10.64 34.3688 10.512 34.4541 10.352C34.5501 10.192 34.5981 10.016 34.5981 9.824C34.5981 9.57867 34.5341 9.392 34.4061 9.264C34.2781 9.12533 34.0968 9.01333 33.8621 8.928C33.6275 8.832 33.3501 8.74133 33.0301 8.656C32.6781 8.56 32.3261 8.448 31.9741 8.32C31.6221 8.192 31.2968 8.03733 30.9981 7.856C30.7101 7.67467 30.4755 7.45067 30.2941 7.184C30.1235 6.90667 30.0381 6.57067 30.0381 6.176C30.0381 5.84533 30.1075 5.536 30.2461 5.248C30.3955 4.96 30.6035 4.71467 30.8701 4.512C31.1475 4.29867 31.4675 4.13867 31.8301 4.032C32.1928 3.91467 32.5928 3.856 33.0301 3.856C33.6381 3.856 34.1501 3.968 34.5661 4.192C34.9821 4.40533 35.2968 4.70933 35.5101 5.104C35.7341 5.49867 35.8515 5.952 35.8621 6.464H34.5181C34.4435 6.016 34.2888 5.69067 34.0541 5.488C33.8195 5.27467 33.4675 5.168 32.9981 5.168C32.5395 5.168 32.1875 5.25867 31.9421 5.44C31.6968 5.62133 31.5741 5.86667 31.5741 6.176C31.5741 6.41067 31.6595 6.60267 31.8301 6.752C32.0008 6.89067 32.2301 7.01333 32.5181 7.12C32.8061 7.22667 33.1315 7.33867 33.4941 7.456C33.8355 7.57333 34.1608 7.696 34.4701 7.824C34.7901 7.94133 35.0728 8.08533 35.3181 8.256C35.5741 8.416 35.7715 8.62933 35.9101 8.896C36.0595 9.152 36.1341 9.472 36.1341 9.856C36.1341 10.3253 36.0168 10.736 35.7821 11.088C35.5475 11.4293 35.2061 11.696 34.7581 11.888C34.3208 12.08 33.7875 12.176 33.1581 12.176C32.5821 12.176 32.0915 12.1067 31.6861 11.968C31.2915 11.8293 30.9555 11.648 30.6781 11.424C30.4115 11.2 30.2035 10.9653 30.0541 10.72C29.9155 10.464 29.8195 10.2187 29.7661 9.984C29.7235 9.74933 29.7128 9.55733 29.7341 9.408ZM45.5664 8.96C45.5024 9.62133 45.289 10.1973 44.9264 10.688C44.5744 11.168 44.1104 11.536 43.5344 11.792C42.9584 12.048 42.3184 12.176 41.6144 12.176C40.8357 12.176 40.121 12.016 39.4704 11.696C38.8197 11.3653 38.297 10.8907 37.9024 10.272C37.5184 9.64267 37.3264 8.896 37.3264 8.032C37.3264 7.15733 37.5184 6.41067 37.9024 5.792C38.297 5.16267 38.8197 4.68267 39.4704 4.352C40.121 4.02133 40.8357 3.856 41.6144 3.856C42.3184 3.856 42.953 3.984 43.5184 4.24C44.0837 4.496 44.5477 4.864 44.9104 5.344C45.273 5.81333 45.4917 6.37867 45.5664 7.04H44.1744C43.993 6.464 43.6677 6.01067 43.1984 5.68C42.7397 5.33867 42.2117 5.168 41.6144 5.168C41.1237 5.168 40.665 5.28 40.2384 5.504C39.8224 5.728 39.4864 6.05333 39.2304 6.48C38.985 6.896 38.8624 7.41333 38.8624 8.032C38.8624 8.62933 38.985 9.14133 39.2304 9.568C39.4864 9.984 39.8224 10.304 40.2384 10.528C40.6544 10.7413 41.113 10.848 41.6144 10.848C42.297 10.848 42.8517 10.6827 43.2784 10.352C43.705 10.0213 44.009 9.55733 44.1904 8.96H45.5664ZM47.1643 4.016H48.7003V12H47.1643V4.016ZM51.4043 5.376C50.8496 5.376 50.3749 5.504 49.9803 5.76C49.5963 6.016 49.2869 6.33067 49.0523 6.704C48.8283 7.07733 48.6789 7.43467 48.6043 7.776L48.5883 6.864C48.5989 6.75733 48.6256 6.592 48.6683 6.368C48.7216 6.13333 48.8123 5.872 48.9403 5.584C49.0683 5.296 49.2389 5.024 49.4523 4.768C49.6656 4.50133 49.9323 4.28267 50.2523 4.112C50.5723 3.94133 50.9563 3.856 51.4043 3.856V5.376ZM54.6293 0.719999V2.368H52.7253V0.719999H54.6293ZM52.9173 4.016H54.4373V12H52.9173V4.016ZM61.4338 12.16C60.8044 12.16 60.2818 12.032 59.8658 11.776C59.4604 11.5093 59.1351 11.1627 58.8898 10.736C58.6551 10.3093 58.4844 9.856 58.3778 9.376C58.2711 8.896 58.2178 8.44267 58.2178 8.016C58.2178 7.44 58.2658 6.90133 58.3618 6.4C58.4684 5.89867 58.6391 5.456 58.8738 5.072C59.1084 4.688 59.4338 4.38933 59.8498 4.176C60.2658 3.96267 60.7938 3.856 61.4338 3.856C62.1484 3.856 62.7831 4.03733 63.3378 4.4C63.9031 4.752 64.3458 5.24267 64.6658 5.872C64.9858 6.49067 65.1458 7.20533 65.1458 8.016C65.1458 8.82667 64.9804 9.54667 64.6498 10.176C64.3191 10.7947 63.8711 11.28 63.3058 11.632C62.7511 11.984 62.1271 12.16 61.4338 12.16ZM61.0018 10.832C61.5138 10.832 61.9618 10.7147 62.3458 10.48C62.7404 10.2347 63.0444 9.904 63.2578 9.488C63.4818 9.06133 63.5938 8.57067 63.5938 8.016C63.5938 7.19467 63.3644 6.51733 62.9058 5.984C62.4578 5.45067 61.8231 5.184 61.0018 5.184C60.4471 5.184 59.9724 5.30133 59.5778 5.536C59.1938 5.77067 58.9004 6.10133 58.6978 6.528C58.4951 6.95467 58.3938 7.45067 58.3938 8.016C58.3938 8.53867 58.4898 9.01333 58.6818 9.44C58.8844 9.86667 59.1778 10.208 59.5618 10.464C59.9564 10.7093 60.4364 10.832 61.0018 10.832ZM58.3938 0.815999V10.256C58.3938 10.5013 58.3778 10.7947 58.3458 11.136C58.3244 11.4773 58.3031 11.7653 58.2818 12H56.8738V0.815999H58.3938ZM72.8868 9.408H74.3428C74.2574 9.93067 74.0548 10.4 73.7348 10.816C73.4148 11.232 72.9934 11.5627 72.4708 11.808C71.9481 12.0533 71.3348 12.176 70.6308 12.176C69.7988 12.176 69.0574 12 68.4068 11.648C67.7561 11.296 67.2441 10.8107 66.8708 10.192C66.4974 9.57333 66.3108 8.85333 66.3108 8.032C66.3108 7.2 66.4921 6.47467 66.8548 5.856C67.2174 5.22667 67.7188 4.736 68.3588 4.384C68.9988 4.032 69.7294 3.856 70.5508 3.856C71.4148 3.856 72.1401 4.02667 72.7268 4.368C73.3134 4.70933 73.7454 5.216 74.0228 5.888C74.3108 6.54933 74.4281 7.376 74.3748 8.368H67.8307C67.8841 8.848 68.0281 9.27467 68.2628 9.648C68.5081 10.0213 68.8281 10.3147 69.2228 10.528C69.6281 10.7413 70.0921 10.848 70.6148 10.848C71.2014 10.848 71.6921 10.7147 72.0868 10.448C72.4814 10.1813 72.7481 9.83467 72.8868 9.408ZM70.5668 5.168C69.8734 5.168 69.2974 5.35467 68.8388 5.728C68.3801 6.09067 68.0761 6.576 67.9268 7.184H72.8388C72.7961 6.53333 72.5614 6.03733 72.1348 5.696C71.7081 5.344 71.1854 5.168 70.5668 5.168ZM76.4404 0.976H77.9444V8.784H76.4404V0.976ZM78.1524 10.352V12H76.2484V10.352H78.1524Z" fill="black"/>
</svg>
